<svg version="1.2" xmlns="http://www.w3.org/2000/svg" viewBox="0 0 756 800" width="756" height="800"><defs><linearGradient id="P" gradientUnits="userSpaceOnUse"/><linearGradient id="g1" x2="1" href="#P" gradientTransform="matrix(0,800,-755,0,378.5,0)"><stop stop-color="#438dbf" stop-opacity="1"/><stop offset="1" stop-color="#116499" stop-opacity="0"/></linearGradient></defs><style>.a{opacity:.7;fill:url(#g1)}.b{fill:none;stroke:#000;stroke-width:.7}.c{fill:none;stroke:#000}.d{fill:none;stroke:#000;stroke-linecap:round;stroke-width:1.5}</style><path class="a" d="m1 0h725c16.6 0 30 13.4 30 30v740c0 16.6-13.4 30-30 30h-725z"/><path fill-rule="evenodd" class="b" d="m1 567.4h753"/><path fill-rule="evenodd" class="b" d="m1 679.4h753"/><path fill-rule="evenodd" class="b" d="m1 455.4h753"/><path fill-rule="evenodd" class="b" d="m1 343.4h753"/><path fill-rule="evenodd" class="b" d="m1 231.4h753"/><path fill-rule="evenodd" class="b" d="m1 119.4h753"/><path fill-rule="evenodd" class="b" d="m110.8 1v798.9"/><path fill-rule="evenodd" class="b" d="m232.8 1v798.9"/><path fill-rule="evenodd" class="b" d="m356.8 1v798.9"/><path fill-rule="evenodd" class="b" d="m472.8 1v798.9"/><path fill-rule="evenodd" class="b" d="m595.8 1v798.9"/><path fill-rule="evenodd" class="c" d="m756 777v-758c0-8.8-7.2-16-16-16"/><path fill-rule="evenodd" class="c" d="m1 1v796"/><path fill-rule="evenodd" d="m668.9 403.1c-2.9-4.4-5.2-9.1-7.4-13.8 0.3-0.3 0.3 0.1 0.5 0.1 0.2-0.2-0.1-0.6 0.4-0.6 0.4 0 0.6 0.2 0.8 0.5 0.9 1.6 1.5 3.3 2.5 4.8 0.4 0.5 0.9 1 1 1.8 0 0.4 0.7 0.7 0.9 1.2 0.2 0.4 0.4 0.7 0.6 1q1 2.2 2.9 3.6c0.3 0.2 0.4 0.4 0.3 0.7-0.3 0.6-0.4 1.4-1.4 1.7-0.6 0.2-1 0-1.4-0.4-1-0.9-1.7-2.1-2.4-3.3-0.7-1.4-1.4-2.9-2.2-4.3-1-1.9-1.8-3.8-2.8-5.8 0-0.2-0.3-0.4 0-0.6 0.2-0.1 0.3 0.2 0.4 0.4q0.8 1.7 1.6 3.4c0.5 1.1 1.1 2.2 1.7 3.2 1 1.7 1.8 3.5 2.9 5.1 0.3 0.5 0.6 1 1.1 1.3z"/><path fill-rule="evenodd" d="m684.6 416.5c0.1 0.5-0.5 0.5-0.7 0.6-0.4 0.2-0.5 0.8-0.8 0.8-0.6-0.1-1.3 0.1-1.8-0.4-1-1.1-1.9-2.2-2.8-3.4-0.6-0.8-1.3-1.6-1.8-2.6-0.2-0.4-0.3-0.8-0.3-1.3 0.1-0.5 0.2-0.9 0.8-1 0.4-0.2 0.7-0.4 1.2-0.5 0.4-0.1 0.7-0.2 0.9 0.3 0.2 0.4 0.5 0.5 0.8 0.8 0.9 1.1 2 1.9 2.7 3.2 0.5 1 1.2 1.8 1.8 2.7 0.2 0.2 0.4 0.5 0 0.8z"/><path fill-rule="evenodd" d="m681.9 387.4c0.2 0.2 0.3 0.3 0.3 0.4 0.2 0 0.2-0.1 0.2-0.2 0-0.1-0.2-0.3 0-0.4 0.2-0.1 0.2 0.2 0.4 0.3 0.2-0.2-0.1-0.4 0-0.6 0.6 0 0.9 0.3 1.1 0.8 0.6 1.3 1.3 2.5 2.3 3.6 0.4 0.4 0.2 1.1 0.8 1.4 0.6 0.4 1 1 1.3 1.6 0.4 1.1 1.3 1.8 2 2.6 0.2 0.3 0.6 0.3 0.6 0.7 0.1 0.1 0.1 0.3 0 0.3-0.6-0.1-0.5 0.4-0.8 0.6-0.4 0.5-1 0.3-1.5 0.1-0.8-0.3-1.3-1-1.8-1.6-1.8-2.6-3.4-5.2-4.7-8.1-0.2-0.5-0.5-0.9-0.2-1.5z"/><path fill-rule="evenodd" d="m675.8 389.1q0.5 0.5 1 1.1c2 2.3 3.7 4.8 5.3 7.4 0.7 1 1.2 2.1 2 3 0.2 0.2 0.3 0.5-0.2 0.7-0.1 0-0.2 0.1-0.3 0.2-0.6 0.6-1.3 0.5-1.9-0.1-0.6-0.6-1-1.4-1.4-2.2-1.7-3.2-3.6-6.3-5.8-9.2-0.3-0.4-0.3-0.4 0.1-0.5q0.1-0.1 0.2-0.1c0.2-0.6 0.6-0.4 1-0.3z"/><path fill-rule="evenodd" d="m686.4 422c0.8 1.1 1.2 2.3 2 3.3 0.8 1.1 1.4 2.2 2.4 3.1q-1-1.4-2-2.7c-0.7-1.1-1.3-2.2-1.9-3.3-0.3-0.6-0.1-0.9 0.4-1 0.4-0.2 0.8 0 1 0.4 0.2 1 0.8 1.8 1.4 2.4 1.1 1.2 2 2.6 3.2 3.6 0.3 0.2 0.5 0.6 0.8 0.8 0.4 0.3 0.7 0.5 1.2 0.5 0.3 0.1 0.7-0.1 0.8 0.3 0.1 0.3 0 0.7-0.3 1-0.2 0.1-0.2 0.3-0.3 0.4-0.6 1-1.6 1.2-2.5 0.5-1.1-1-2.1-2.1-3-3.3-1.1-1.6-2.2-3.2-3.1-5-0.1-0.3-0.2-0.5-0.1-1z"/><path fill-rule="evenodd" d="m713.5 403c-0.7 1.3-1.5 1.4-2.3 0.3-0.7-0.8-1-1.8-1.4-2.8q-1.3-3.3-2.3-6.8c-0.1-0.6 0-1.1 0.1-1.6 0.1-0.2 0.2-0.6 0.3-0.5 0.2 0.2 0.7 0.1 0.8 0.5 0.7 1.9 1.5 3.7 2.3 5.5 0.4 0.8 0.6 1.6 1 2.4 0.3 0.6 0.5 1.1 1.3 1.2 0.1 0 0.2 0.1 0.2 0.1-0.1 0.6 0.3 1.2 0 1.7z"/><path fill-rule="evenodd" d="m691.9 372.9c-0.4-1.1-1-2-1.4-3.1-0.1-0.3-0.1-0.7-0.3-1-0.2-0.5 0.2-0.6 0.5-0.7 0.2-0.1 0.5 0 0.7 0.3 0.6 1.4 1.4 2.7 2.3 3.9 0.6 0.9 1 1.9 2 2.6 0.3 0.3 0.6 0.8 0.9 1.2 0.5 0.5-0.2 0.6-0.4 0.9 0 0-0.2 0-0.2 0-0.1 0.2 0.3 0.6-0.2 0.6-0.6 0.1-1.2 0.1-1.7-0.4-0.9-1-1.5-2-2.1-3.1-0.9-1.5-1.8-2.9-2.2-4.6q0-0.1-0.1-0.3c0-0.2 0-0.3 0.2-0.4 0.1 0 0.2 0.1 0.3 0.3 0.2 1.3 1 2.4 1.5 3.5q0.1 0.2 0.2 0.3z"/><path fill-rule="evenodd" d="m697.6 405.8c-0.1-0.4-0.1-0.9-0.3-1.3-0.2-0.4-0.1-0.8 0.3-1.1 0.2-0.2 0.4 0 0.5 0.1 0.4 0.3 0.6 0.7 0.5 1.2 0 0.1-0.2 0.2 0 0.3 0.8 0.4 0.8 1.4 1.3 2.1 0.1 0.2 0.2 0.4 0.3 0.7 0.4 0.7 0.9 1.3 0.7 2.2-0.1 0.2-0.1 0.6 0.2 0.6 1 0.2 1.2 1.1 1.6 1.8 0.7 1.1 1.2 2.3 2 3.3 0.1 0.2 0.2 0.3 0.1 0.4-0.2 0.2-0.2-0.2-0.4-0.1 0 0.3 0.2 0.7-0.4 0.8-0.2 0.1-0.1 0.4 0 0.6 0.1 0.1 0.2 0.3 0 0.4-0.2 0.1-0.2-0.1-0.3-0.2-1.3-2-2.3-4-3.3-6.1q-1.3-2.8-2.7-5.5 0-0.1-0.1-0.2z"/><path fill-rule="evenodd" d="m698.9 392.1c0 0.2-0.4-0.7-0.3 0.1q0 0 0 0.1c-0.5 0.1-0.6 0.5-0.5 1 0 0.1-1 0.3-1.3 0.2q-0.4-0.3-0.7-0.7-1.7-2.6-2.1-5.6c-0.1-1 0.4-1.7 1.2-2.2 0.4-0.2 0.7-0.1 0.8 0.4q0.2 0.8 0.5 1.6c0.2 0.6 0.5 1.1 0.6 1.7 0.3 0.8 0.9 1.4 1.3 2.2 0.2 0.4 0.5 0.7 0.5 1.2zm-2.1 0.4c-0.6-1.2-1.2-2.4-1.7-3.6 0.1 1.1 0.9 2.9 1.7 3.6z"/><path fill-rule="evenodd" d="m709.1 376.6c0.3 0.2 0.4 0.4 0.6 0.6 0-0.2 0-0.3-0.1-0.3-0.3-0.4 0-0.7 0.3-0.9 0.3-0.2 0.7-0.1 0.9 0.2q0.6 0.7 1 1.4c0.4 0.7 0.7 1.4 1.2 2.1 0.5 0.6 0.9 1.3 1.8 1.6 0.4 0.2 0.4 0.6 0.1 0.9-0.2 0.1-0.3 0.3-0.4 0.4-0.6 1.2-1.7 1.3-2.6 0.3-1.1-1.5-1.9-3.3-2.5-5.1-0.1-0.3-0.4-0.7-0.3-1.2z"/><path fill-rule="evenodd" d="m709.1 432.2c0.4 0.2 0.8 0 1.2 0.1-0.3 0.6-0.7 0.7-1.4 0.5-0.6-0.2-1.1-0.7-1.4-1.3-0.7-1.2-1.5-2.4-1.9-3.8-0.1-0.6-0.6-1.1-0.8-1.7-0.6-1.7-1.2-3.4-1.9-5.1q-0.2-0.5-0.2-1c0-0.2 0.1-0.4 0.3-0.4 0.2-0.1 0.3 0 0.4 0.2 0.2 0.2 0.3 0.4 0.4 0.7 0.9 2.3 1.8 4.7 2.8 7 0.4 0.9 0.9 1.7 1.6 2.4 0.3 0.4 0.8 0.5 1.2 0.7 0.1 0 0.3 0 0.3 0.2 0 0.4-0.1 0.8 0.6 0.8 0.1 0 0.1 0.2 0 0.3-0.1 0.2-0.2 0.4-0.5 0.3-0.2-0.1-0.4 0-0.7 0.1z"/><path fill-rule="evenodd" d="m686.1 407.2c-0.1 0.1-0.2 0.2-0.1 0.3 0.3 0.5 0.7 0.9 1 1.4 0.2 0.3 0.7 0.5 0.3 1-0.1 0.1 0 0.2 0.1 0.1 0.2 0 0.3 0.2 0.3 0.3q0.2 0.5 0.7 0.7c0.6 0.2 0.6 0.7 0.1 1.1 0 0-0.2 0.1-0.2 0.1 0.9 0.7-0.6 0.5-0.3 0.9q-0.3 0.1-0.6 0c-0.5-0.2-0.7-0.6-1-1.1-0.9-1.5-1.4-3.3-1.8-5.1-0.1-0.4 0.1-0.8 0.2-1.3 0.1-0.2 0.3-0.2 0.5-0.2 0.3 0 0.3 0.2 0.1 0.3 0.4 0.3 0.5 0.7 0.7 1.1 0.1 0.2 0.2 0.3 0 0.4z"/><path fill-rule="evenodd" d="m685 382.8c0.1 0.3 0.6 0.4 0.3 0.9-0.2 0.4-0.3 0.2-0.5 0.1-0.2 0.3 0.3 0.4 0.2 0.7-0.6-0.1-1-0.6-1.4-0.9q-0.1 0-0.1 0c-0.1-0.6-0.5-1-0.9-1.4-0.1-0.2-0.3-0.4-0.4-0.6-0.8-1.6-1.7-3.1-2.4-4.8-0.6-1.3-1.3-2.6-1.8-3.9-0.1-0.3-0.2-0.6-0.2-1.1 0.4 0.6 0.6 1.1 0.9 1.5q0 0 0 0c0.1 0.9 0.7 1.5 1 2.4 0.2-0.1 0.1-0.3 0.1-0.4 0.1-0.1 0.2-0.2 0.4-0.1 0.1 0 0.2 0 0.1 0.1-0.1 0.5 0.3 0.6 0.6 0.8 0.3 0.2 0.4 0.4 0.4 0.8 0 0.5 0.2 0.9 0.6 1.1q0.1 0.2 0.2 0.4c0 0.5 0.6 1.7 1.1 1.9-0.1 0.2 0.2 0.5-0.2 0.7 0.9 0.4 1.1 1.3 1.6 1.9 0.1 0-0.3 0.2 0 0.3 0.2 0 0.4-0.2 0.4-0.4zm-2-1.8q0 0 0 0 0 0 0 0 0 0 0 0 0 0 0 0zm-0.3 0.4c0.3 0.6 0.9 0.8 1 1.4 0 0.1 0.1 0.2 0.2 0.1 0.1 0 0.1-0.2 0.1-0.2-0.4-0.3-0.5-0.9-0.9-1.2-0.1-0.1-0.2-0.3-0.1-0.5-0.3 0-0.5 0-0.3 0.4zm-1.6-3.4q-0.1 0-0.2 0.1 0.4 0.7 0.8 1.4c0 0.1 0.1 0.2 0.2 0.1 0.1 0 0.1-0.1 0.1-0.2-0.5-0.4-0.5-1-0.9-1.4z"/><path fill-rule="evenodd" d="m720.6 391.4c0.3 0.3 0.6 0.3 0.9 0.4 0.2 0 0.3 0 0.3 0.2-0.1 0.2-0.2 0.3-0.4 0.2-0.3 0-0.7-0.2-0.9-0.5-0.9-0.9-1.5-2-1.9-3.2-0.2-0.4-0.2-0.8-0.4-1.1-0.4-0.6-0.2-1.2-0.1-1.8 0.1-0.3 0.4-0.2 0.6-0.1 0.1 0 0.3 0.2 0.3 0.3 0 1.1 1 1.9 1.4 2.8 0.1 0.4 0.6 0.6 0.8 1 0.1 0.3 0.4 0.6 0.3 1 0 0.2 0.3 0.2 0.4 0.4 0.1 0.1 0.2 0.2 0.1 0.3 0 0.1-0.2 0.2-0.2 0.1-0.4-0.3-0.8 0.1-1.2 0z"/><path fill-rule="evenodd" d="m697.6 405.8q0.1 0.1 0.1 0.2c0.3 1.1 0.7 2.1 1.1 3.1 0.6 1.4 1.3 2.8 2.1 4.1 0.6 1.1 1 2.4 1.9 3.4 0.3 0.4 0.5 0.9 0.5 1.5-0.7-0.2-0.8-0.9-1.2-1.4-0.8-1.3-1.4-2.7-2.1-4.2-1.2-2.5-2.5-5-3.2-7.8-0.1-0.1-0.1-0.3 0.1-0.5 0.4 0.5 0.4 1.1 0.7 1.6z"/><path fill-rule="evenodd" d="m702.2 380.1c0.1 0.3 0.6 0.3 0.4 0.6-0.2 0.3-0.5 0-0.7-0.2q-1.6-1.9-1.5-4.3c0-0.3 0-0.6 0.4-0.7 0.3 0 0.3 0.4 0.4 0.6 0.3 0.9 0.7 1.9 1.5 2.5 0.2 0.2 0.2 0.4 0.1 0.7q0 0.1 0.1 0.2c0.2 0.6 0 0.9-0.7 0.6z"/><path fill-rule="evenodd" d="m679.5 377.4c0.7 0.5 0.7 1.3 1 1.9 0.3 0.4 0.6 0.9 0.7 1.4 0.1 0.2 0.2 0.3 0 0.4-0.1 0.1-0.3 0-0.3-0.1-0.5-1-1.1-1.9-1.4-2.9-0.1-0.2 0-0.5 0.1-0.7z"/><path fill-rule="evenodd" d="m679.6 377.4c-0.2 0-0.4 0-0.5-0.2-0.6-1.3-1.1-2.5-1.5-3.9-0.1-0.1-0.2-0.2 0-0.3 0.1 0 0.2 0.1 0.2 0.2q0.8 2 1.8 4.1c0 0-0.1 0.1-0.1 0.1z"/><path fill-rule="evenodd" d="m683.5 383.6q0 0 0.1 0c0.1 0.3 0.2 0.6 0.5 0.7 0.1 0.1 0.3 0.2 0.2 0.3-0.1 0.2-0.2 0.1-0.3 0-1-0.7-1.7-1.6-2.4-2.5-0.1-0.1-0.2-0.4 0-0.6 0.2-0.1 0.3 0.2 0.4 0.3 0.4 0.7 0.9 1.2 1.5 1.8z"/><path fill-rule="evenodd" d="m678.7 373.3q0 0 0 0c-0.1-0.3 0.1-0.8-0.3-1.1-0.1 0-0.3-0.4 0-0.4 0.3-0.1 0.3 0.1 0.4 0.3 0.1 0.7 0.4 1.4 0.9 1.9-0.3 0.1-0.5 0.3-0.6-0.2 0-0.3-0.3-0.3-0.4-0.5z"/><path fill-rule="evenodd" d="m682.1 378.4q-0.1-0.2-0.2-0.4 0-0.2 0-0.4 0 0 0.1 0 0.3 0.6 0.7 1.1-0.1 0.1-0.1 0.1-0.3-0.2-0.5-0.4z"/><path fill-rule="evenodd" d="m684.8 382.4c-0.4-0.1-0.5-0.6-0.7-0.9q-0.3-0.4-0.6-0.9 0.2 0 0.4 0.3 0.4 0.7 0.9 1.5z"/><path fill-rule="evenodd" class="d" d="m34 634c2.4-4.4 7.1-8.1 10.6-11.6 1.2-1.3 13.6-14.6 10.3-7.1-2.2 5.1-4.8 10-6.8 15.1-0.5 1.3 2.7-1.8 3.1-2.2 1.1-0.7 6.8-5.6 6.8-3.6 0 2.1 0 3.6-0.8 5.3"/><path fill-rule="evenodd" d="m170.2 58c-1.8 7.8-8.2 13.8-16.2 15.1 7.9 1.3 14.2 7.2 16.1 14.9 1.6-7.3 7.2-13.1 14.3-15v-0.3c-7-1.9-12.6-7.5-14.2-14.7z"/><path fill-rule="evenodd" d="m673.1 58c-0.9 3.9-4.1 6.9-8.1 7.6 3.9 0.6 7.1 3.6 8.1 7.4 0.7-3.6 3.5-6.5 7.1-7.5v-0.1c-3.5-1-6.3-3.8-7.1-7.4z"/></svg>